<svg width="170" height="50" viewBox="0 0 170 50" fill="none" xmlns="http://www.w3.org/2000/svg">
<rect width="170" height="50" rx="5" fill="url(#paint0_linear_430_226)"/>
<path d="M32.524 31.144C31.564 31.144 30.676 30.988 29.86 30.676C29.056 30.352 28.354 29.902 27.754 29.326C27.166 28.738 26.704 28.054 26.368 27.274C26.032 26.494 25.864 25.636 25.864 24.7C25.864 23.764 26.032 22.906 26.368 22.126C26.704 21.346 27.172 20.668 27.772 20.092C28.372 19.504 29.074 19.054 29.878 18.742C30.694 18.418 31.582 18.256 32.542 18.256C33.514 18.256 34.408 18.424 35.224 18.76C36.052 19.084 36.754 19.57 37.33 20.218L36.16 21.352C35.68 20.848 35.14 20.476 34.54 20.236C33.94 19.984 33.298 19.858 32.614 19.858C31.906 19.858 31.246 19.978 30.634 20.218C30.034 20.458 29.512 20.794 29.068 21.226C28.624 21.658 28.276 22.174 28.024 22.774C27.784 23.362 27.664 24.004 27.664 24.7C27.664 25.396 27.784 26.044 28.024 26.644C28.276 27.232 28.624 27.742 29.068 28.174C29.512 28.606 30.034 28.942 30.634 29.182C31.246 29.422 31.906 29.542 32.614 29.542C33.298 29.542 33.94 29.422 34.54 29.182C35.14 28.93 35.68 28.546 36.16 28.03L37.33 29.164C36.754 29.812 36.052 30.304 35.224 30.64C34.408 30.976 33.508 31.144 32.524 31.144ZM44.9621 31.144C44.0021 31.144 43.1081 30.982 42.2801 30.658C41.4641 30.334 40.7561 29.884 40.1561 29.308C39.5561 28.72 39.0881 28.036 38.7521 27.256C38.4161 26.476 38.2481 25.624 38.2481 24.7C38.2481 23.776 38.4161 22.924 38.7521 22.144C39.0881 21.364 39.5561 20.686 40.1561 20.11C40.7561 19.522 41.4641 19.066 42.2801 18.742C43.0961 18.418 43.9901 18.256 44.9621 18.256C45.9221 18.256 46.8041 18.418 47.6081 18.742C48.4241 19.054 49.1321 19.504 49.7321 20.092C50.3441 20.668 50.8121 21.346 51.1361 22.126C51.4721 22.906 51.6401 23.764 51.6401 24.7C51.6401 25.636 51.4721 26.494 51.1361 27.274C50.8121 28.054 50.3441 28.738 49.7321 29.326C49.1321 29.902 48.4241 30.352 47.6081 30.676C46.8041 30.988 45.9221 31.144 44.9621 31.144ZM44.9621 29.542C45.6581 29.542 46.3001 29.422 46.8881 29.182C47.4881 28.942 48.0041 28.606 48.4361 28.174C48.8801 27.73 49.2221 27.214 49.4621 26.626C49.7141 26.038 49.8401 25.396 49.8401 24.7C49.8401 24.004 49.7141 23.362 49.4621 22.774C49.2221 22.186 48.8801 21.676 48.4361 21.244C48.0041 20.8 47.4881 20.458 46.8881 20.218C46.3001 19.978 45.6581 19.858 44.9621 19.858C44.2541 19.858 43.6001 19.978 43.0001 20.218C42.4121 20.458 41.8961 20.8 41.4521 21.244C41.0081 21.676 40.6601 22.186 40.4081 22.774C40.1681 23.362 40.0481 24.004 40.0481 24.7C40.0481 25.396 40.1681 26.038 40.4081 26.626C40.6601 27.214 41.0081 27.73 41.4521 28.174C41.8961 28.606 42.4121 28.942 43.0001 29.182C43.6001 29.422 44.2541 29.542 44.9621 29.542ZM54.0313 31V18.4H55.5073L63.8413 28.75H63.0673V18.4H64.8673V31H63.3913L55.0573 20.65H55.8313V31H54.0313ZM70.7807 31V19.966H66.4607V18.4H76.8827V19.966H72.5627V31H70.7807ZM75.9424 31L81.6484 18.4H83.4304L89.1544 31H87.2644L82.1704 19.408H82.8904L77.7964 31H75.9424ZM78.3724 27.85L78.8584 26.41H85.9504L86.4724 27.85H78.3724ZM96.1322 31.144C95.1722 31.144 94.2842 30.988 93.4682 30.676C92.6642 30.352 91.9622 29.902 91.3622 29.326C90.7742 28.738 90.3122 28.054 89.9762 27.274C89.6402 26.494 89.4722 25.636 89.4722 24.7C89.4722 23.764 89.6402 22.906 89.9762 22.126C90.3122 21.346 90.7802 20.668 91.3802 20.092C91.9802 19.504 92.6822 19.054 93.4862 18.742C94.3022 18.418 95.1902 18.256 96.1502 18.256C97.1222 18.256 98.0162 18.424 98.8322 18.76C99.6602 19.084 100.362 19.57 100.938 20.218L99.7682 21.352C99.2882 20.848 98.7482 20.476 98.1482 20.236C97.5482 19.984 96.9062 19.858 96.2222 19.858C95.5142 19.858 94.8542 19.978 94.2422 20.218C93.6422 20.458 93.1202 20.794 92.6762 21.226C92.2322 21.658 91.8842 22.174 91.6322 22.774C91.3922 23.362 91.2722 24.004 91.2722 24.7C91.2722 25.396 91.3922 26.044 91.6322 26.644C91.8842 27.232 92.2322 27.742 92.6762 28.174C93.1202 28.606 93.6422 28.942 94.2422 29.182C94.8542 29.422 95.5142 29.542 96.2222 29.542C96.9062 29.542 97.5482 29.422 98.1482 29.182C98.7482 28.93 99.2882 28.546 99.7682 28.03L100.938 29.164C100.362 29.812 99.6602 30.304 98.8322 30.64C98.0162 30.976 97.1162 31.144 96.1322 31.144ZM105.507 31V19.966H101.187V18.4H111.609V19.966H107.289V31H105.507ZM117.684 31V18.4H119.16L124.812 27.922H124.02L129.6 18.4H131.076L131.094 31H129.366L129.348 21.118H129.762L124.794 29.47H123.966L118.962 21.118H119.412V31H117.684ZM136.153 23.836H142.633V25.366H136.153V23.836ZM136.315 29.434H143.659V31H134.515V18.4H143.407V19.966H136.315V29.434Z" fill="#0A0D11"/>
<rect x="0.5" y="0.5" width="169" height="49" rx="4.5" stroke="url(#paint1_linear_430_226)" stroke-opacity="0.2"/>
<defs>
<linearGradient id="paint0_linear_430_226" x1="162.5" y1="47.0588" x2="99.7578" y2="-54.1647" gradientUnits="userSpaceOnUse">
<stop stop-color="#FFE5A2"/>
<stop offset="0.505208" stop-color="#BF841A"/>
<stop offset="1" stop-color="#FFCD74"/>
</linearGradient>
<linearGradient id="paint1_linear_430_226" x1="170" y1="50" x2="105.226" y2="21.2272" gradientUnits="userSpaceOnUse">
<stop stop-color="#FFDC8F"/>
<stop offset="1" stop-opacity="0"/>
</linearGradient>
</defs>
</svg>
