<svg width="180" height="54" viewBox="0 0 180 54" fill="none" xmlns="http://www.w3.org/2000/svg">
<path d="M19.39 33V20.4H24.304C25.408 20.4 26.35 20.574 27.13 20.922C27.91 21.27 28.51 21.774 28.93 22.434C29.35 23.094 29.56 23.88 29.56 24.792C29.56 25.704 29.35 26.49 28.93 27.15C28.51 27.798 27.91 28.302 27.13 28.662C26.35 29.01 25.408 29.184 24.304 29.184H20.38L21.19 28.338V33H19.39ZM21.19 28.518L20.38 27.618H24.25C25.402 27.618 26.272 27.372 26.86 26.88C27.46 26.388 27.76 25.692 27.76 24.792C27.76 23.892 27.46 23.196 26.86 22.704C26.272 22.212 25.402 21.966 24.25 21.966H20.38L21.19 21.066V28.518ZM34.9045 33V20.4H39.8185C40.9225 20.4 41.8645 20.574 42.6445 20.922C43.4245 21.27 44.0245 21.774 44.4445 22.434C44.8645 23.094 45.0745 23.88 45.0745 24.792C45.0745 25.704 44.8645 26.49 44.4445 27.15C44.0245 27.798 43.4245 28.296 42.6445 28.644C41.8645 28.992 40.9225 29.166 39.8185 29.166H35.8945L36.7045 28.338V33H34.9045ZM43.3285 33L40.1245 28.428H42.0505L45.2905 33H43.3285ZM36.7045 28.518L35.8945 27.636H39.7645C40.9165 27.636 41.7865 27.39 42.3745 26.898C42.9745 26.394 43.2745 25.692 43.2745 24.792C43.2745 23.892 42.9745 23.196 42.3745 22.704C41.7865 22.212 40.9165 21.966 39.7645 21.966H35.8945L36.7045 21.066V28.518ZM56.3706 33.144C55.4106 33.144 54.5166 32.982 53.6886 32.658C52.8726 32.334 52.1646 31.884 51.5646 31.308C50.9646 30.72 50.4966 30.036 50.1606 29.256C49.8246 28.476 49.6566 27.624 49.6566 26.7C49.6566 25.776 49.8246 24.924 50.1606 24.144C50.4966 23.364 50.9646 22.686 51.5646 22.11C52.1646 21.522 52.8726 21.066 53.6886 20.742C54.5046 20.418 55.3986 20.256 56.3706 20.256C57.3306 20.256 58.2126 20.418 59.0166 20.742C59.8326 21.054 60.5406 21.504 61.1406 22.092C61.7526 22.668 62.2206 23.346 62.5446 24.126C62.8806 24.906 63.0486 25.764 63.0486 26.7C63.0486 27.636 62.8806 28.494 62.5446 29.274C62.2206 30.054 61.7526 30.738 61.1406 31.326C60.5406 31.902 59.8326 32.352 59.0166 32.676C58.2126 32.988 57.3306 33.144 56.3706 33.144ZM56.3706 31.542C57.0666 31.542 57.7086 31.422 58.2966 31.182C58.8966 30.942 59.4126 30.606 59.8446 30.174C60.2886 29.73 60.6306 29.214 60.8706 28.626C61.1226 28.038 61.2486 27.396 61.2486 26.7C61.2486 26.004 61.1226 25.362 60.8706 24.774C60.6306 24.186 60.2886 23.676 59.8446 23.244C59.4126 22.8 58.8966 22.458 58.2966 22.218C57.7086 21.978 57.0666 21.858 56.3706 21.858C55.6626 21.858 55.0086 21.978 54.4086 22.218C53.8206 22.458 53.3046 22.8 52.8606 23.244C52.4166 23.676 52.0686 24.186 51.8166 24.774C51.5766 25.362 51.4566 26.004 51.4566 26.7C51.4566 27.396 51.5766 28.038 51.8166 28.626C52.0686 29.214 52.4166 29.73 52.8606 30.174C53.3046 30.606 53.8206 30.942 54.4086 31.182C55.0086 31.422 55.6626 31.542 56.3706 31.542ZM69.8561 33.144C69.1121 33.144 68.4161 32.988 67.7681 32.676C67.1201 32.364 66.5921 31.914 66.1841 31.326L67.2281 30.102C67.5761 30.582 67.9661 30.954 68.3981 31.218C68.8421 31.47 69.3281 31.596 69.8561 31.596C71.2961 31.596 72.0161 30.744 72.0161 29.04V21.966H67.4621V20.4H73.7981V28.95C73.7981 30.354 73.4621 31.404 72.7901 32.1C72.1301 32.796 71.1521 33.144 69.8561 33.144ZM81.8026 25.836H88.2826V27.366H81.8026V25.836ZM81.9646 31.434H89.3086V33H80.1646V20.4H89.0566V21.966H81.9646V31.434ZM100.54 33.144C99.5796 33.144 98.6916 32.988 97.8756 32.676C97.0716 32.352 96.3696 31.902 95.7696 31.326C95.1816 30.738 94.7196 30.054 94.3836 29.274C94.0476 28.494 93.8796 27.636 93.8796 26.7C93.8796 25.764 94.0476 24.906 94.3836 24.126C94.7196 23.346 95.1876 22.668 95.7876 22.092C96.3876 21.504 97.0896 21.054 97.8936 20.742C98.7096 20.418 99.5976 20.256 100.558 20.256C101.53 20.256 102.424 20.424 103.24 20.76C104.068 21.084 104.77 21.57 105.346 22.218L104.176 23.352C103.696 22.848 103.156 22.476 102.556 22.236C101.956 21.984 101.314 21.858 100.63 21.858C99.9216 21.858 99.2616 21.978 98.6496 22.218C98.0496 22.458 97.5276 22.794 97.0836 23.226C96.6396 23.658 96.2916 24.174 96.0396 24.774C95.7996 25.362 95.6796 26.004 95.6796 26.7C95.6796 27.396 95.7996 28.044 96.0396 28.644C96.2916 29.232 96.6396 29.742 97.0836 30.174C97.5276 30.606 98.0496 30.942 98.6496 31.182C99.2616 31.422 99.9216 31.542 100.63 31.542C101.314 31.542 101.956 31.422 102.556 31.182C103.156 30.93 103.696 30.546 104.176 30.03L105.346 31.164C104.77 31.812 104.068 32.304 103.24 32.64C102.424 32.976 101.524 33.144 100.54 33.144ZM112.975 33V21.966H108.655V20.4H119.077V21.966H114.757V33H112.975ZM127.251 33.144C126.291 33.144 125.373 33 124.497 32.712C123.621 32.412 122.931 32.028 122.427 31.56L123.093 30.156C123.573 30.576 124.185 30.924 124.929 31.2C125.673 31.476 126.447 31.614 127.251 31.614C127.983 31.614 128.577 31.53 129.033 31.362C129.489 31.194 129.825 30.966 130.041 30.678C130.257 30.378 130.365 30.042 130.365 29.67C130.365 29.238 130.221 28.89 129.933 28.626C129.657 28.362 129.291 28.152 128.835 27.996C128.391 27.828 127.899 27.684 127.359 27.564C126.819 27.444 126.273 27.306 125.721 27.15C125.181 26.982 124.683 26.772 124.227 26.52C123.783 26.268 123.423 25.932 123.147 25.512C122.871 25.08 122.733 24.528 122.733 23.856C122.733 23.208 122.901 22.614 123.237 22.074C123.585 21.522 124.113 21.084 124.821 20.76C125.541 20.424 126.453 20.256 127.557 20.256C128.289 20.256 129.015 20.352 129.735 20.544C130.455 20.736 131.079 21.012 131.607 21.372L131.013 22.812C130.473 22.452 129.903 22.194 129.303 22.038C128.703 21.87 128.121 21.786 127.557 21.786C126.849 21.786 126.267 21.876 125.811 22.056C125.355 22.236 125.019 22.476 124.803 22.776C124.599 23.076 124.497 23.412 124.497 23.784C124.497 24.228 124.635 24.582 124.911 24.846C125.199 25.11 125.565 25.32 126.009 25.476C126.465 25.632 126.963 25.776 127.503 25.908C128.043 26.028 128.583 26.166 129.123 26.322C129.675 26.478 130.173 26.682 130.617 26.934C131.073 27.186 131.439 27.522 131.715 27.942C131.991 28.362 132.129 28.902 132.129 29.562C132.129 30.198 131.955 30.792 131.607 31.344C131.259 31.884 130.719 32.322 129.987 32.658C129.267 32.982 128.355 33.144 127.251 33.144Z" fill="url(#paint0_linear_430_225)"/>
<g clip-path="url(#clip0_430_225)">
<path d="M146.75 24.375L152 29.625L157.25 24.375" stroke="url(#paint1_linear_430_225)" stroke-width="2" stroke-linecap="round" stroke-linejoin="round"/>
</g>
<path d="M0.5 0.5H179.5V53.5H0.5V0.5Z" stroke="url(#paint2_linear_430_225)"/>
<path d="M0.5 0.5H179.5V53.5H0.5V0.5Z" stroke="url(#paint3_linear_430_225)" stroke-opacity="0.2"/>
<defs>
<linearGradient id="paint0_linear_430_225" x1="128.382" y1="49.0588" x2="58.6478" y2="-27.709" gradientUnits="userSpaceOnUse">
<stop stop-color="#FFE5A2"/>
<stop offset="0.505208" stop-color="#BF841A"/>
<stop offset="1" stop-color="#FFCD74"/>
</linearGradient>
<linearGradient id="paint1_linear_430_225" x1="156.787" y1="29.3162" x2="149.441" y2="22.3448" gradientUnits="userSpaceOnUse">
<stop stop-color="#FFE5A2"/>
<stop offset="0.505208" stop-color="#BF841A"/>
<stop offset="1" stop-color="#FFCD74"/>
</linearGradient>
<linearGradient id="paint2_linear_430_225" x1="-9.10112" y1="-4.5" x2="6.32613" y2="50.1329" gradientUnits="userSpaceOnUse">
<stop stop-color="#FFE195"/>
<stop offset="0.177083" stop-color="#F2BB5A" stop-opacity="0.876812"/>
<stop offset="0.359375" stop-color="#BF7A00" stop-opacity="0.75"/>
<stop offset="1" stop-color="#BF7A00" stop-opacity="0"/>
<stop offset="1" stop-color="#0F1218" stop-opacity="0"/>
</linearGradient>
<linearGradient id="paint3_linear_430_225" x1="155.094" y1="62.5909" x2="108.025" y2="28.2035" gradientUnits="userSpaceOnUse">
<stop stop-color="#8FA8FF"/>
<stop offset="1" stop-opacity="0"/>
</linearGradient>
<clipPath id="clip0_430_225">
<rect width="21" height="21" fill="white" transform="translate(141.5 16.5)"/>
</clipPath>
</defs>
</svg>
