<svg xmlns="http://www.w3.org/2000/svg" xmlns:xlink="http://www.w3.org/1999/xlink" viewBox="0,0,256,256" width="144px" height="144px"><g fill="#150101" fill-rule="nonzero" stroke="none" stroke-width="1" stroke-linecap="butt" stroke-linejoin="miter" stroke-miterlimit="10" stroke-dasharray="" stroke-dashoffset="0" font-family="none" font-weight="none" font-size="none" text-anchor="none" style="mix-blend-mode: normal"><path d="M0,256v-256h256v256z" id="bgRectangle"></path></g><g fill="none" fill-rule="nonzero" stroke="none" stroke-width="1" stroke-linecap="butt" stroke-linejoin="miter" stroke-miterlimit="10" stroke-dasharray="" stroke-dashoffset="0" font-family="none" font-weight="none" font-size="none" text-anchor="none" style="mix-blend-mode: normal"><g transform="scale(5.33333,5.33333)"><circle cx="24" cy="24" r="20" fill="#4db6ac"></circle><path d="M33.357,21.5h-8.882c-0.187,0 -0.308,-0.198 -0.222,-0.365l5.03,-9.745c0.13,-0.253 -0.195,-0.492 -0.398,-0.293l-14.2,13.974c-0.159,0.157 -0.048,0.428 0.175,0.428h9.34c0.202,0 0.32,0.227 0.205,0.393l-7.126,10.265c-0.17,0.245 0.154,0.528 0.374,0.327l15.873,-14.55c0.168,-0.154 0.059,-0.434 -0.169,-0.434z" fill="#ffffff"></path></g></g></svg>