<?xml version="1.0" encoding="UTF-8"?>
<svg xmlns="http://www.w3.org/2000/svg" xmlns:xlink="http://www.w3.org/1999/xlink" viewBox="0 0 150 150" width="150px" height="150px">
<g id="surface47036284">
<path style="fill-rule:nonzero;fill:rgb(0%,0%,0%);fill-opacity:1;stroke-width:10;stroke-linecap:butt;stroke-linejoin:round;stroke:rgb(100%,100%,100%);stroke-opacity:1;stroke-miterlimit:10;" d="M 156.628639 10.626764 L 144.527779 146.253088 C 144.399803 147.670305 143.413912 148.86475 142.044093 149.258158 L 86.924273 164.98975 C 86.616182 165.075067 86.293872 165.117726 85.981041 165.117726 C 85.663471 165.117726 85.34116 165.075067 85.037809 164.98975 L 29.960648 149.258158 C 28.595569 148.86475 27.604938 147.670305 27.476962 146.253088 L 15.371363 10.626764 C 15.286045 9.664572 15.603616 8.711861 16.257716 7.996142 C 16.911817 7.285163 17.831349 6.882275 18.798281 6.882275 L 153.201721 6.882275 C 154.168652 6.882275 155.088185 7.285163 155.742285 7.996142 C 156.391646 8.711861 156.713956 9.664572 156.628639 10.626764 Z M 41.279432 116.785384 L 79.117725 127.279432 L 79.117725 37.838294 L 65.357915 37.838294 L 65.357915 106.452492 L 41.279432 99.774031 Z M 106.642086 79.117725 L 106.642086 51.598104 L 132.972003 51.598104 L 134.161707 37.838294 L 92.882276 37.838294 L 92.882276 96.318674 L 116.960759 92.171297 L 116.098105 105.073193 L 92.882276 111.453043 L 92.882276 127.279432 L 127.279432 117.818674 L 130.905424 75.681328 Z M 106.642086 79.117725 " transform="matrix(0.824128,0,0,0.824128,4.125,4.125)"/>
<path style=" stroke:none;fill-rule:nonzero;fill:rgb(0%,0%,0%);fill-opacity:1;" d="M 132.476562 10.714844 C 131.9375 10.128906 131.179688 9.796875 130.382812 9.796875 L 19.617188 9.796875 C 18.820312 9.796875 18.0625 10.128906 17.523438 10.714844 C 16.984375 11.304688 16.722656 12.089844 16.792969 12.882812 L 26.769531 124.65625 C 26.875 125.824219 27.691406 126.808594 28.816406 127.132812 L 74.207031 140.097656 C 74.457031 140.167969 74.722656 140.203125 74.984375 140.203125 C 75.242188 140.203125 75.507812 140.167969 75.761719 140.097656 L 121.1875 127.132812 C 122.316406 126.808594 123.128906 125.824219 123.234375 124.65625 L 133.207031 12.882812 C 133.277344 12.089844 133.011719 11.304688 132.476562 10.714844 Z M 38.144531 86.351562 L 57.988281 91.855469 L 57.988281 35.308594 L 69.328125 35.308594 L 69.328125 109.019531 L 38.144531 100.371094 Z M 112.007812 66.496094 L 109.019531 101.222656 L 80.671875 109.019531 L 80.671875 95.976562 L 99.804688 90.71875 L 100.515625 80.085938 L 80.671875 83.503906 L 80.671875 35.308594 L 114.691406 35.308594 L 113.710938 46.648438 L 92.011719 46.648438 L 92.011719 69.328125 Z M 112.007812 66.496094 "/>
</g>
</svg>
